<svg xmlns="http://www.w3.org/2000/svg" xmlns:xlink="http://www.w3.org/1999/xlink" preserveAspectRatio="xMidYMid" width="13.719" height="13.718" viewBox="0 0 13.719 13.718">
  <defs>
    <style>
      .cls-1 {
        fill: #27c359;
        fill-rule: evenodd;
      }
    </style>
  </defs>
  <path d="M10.453,6.108 C10.676,5.885 10.676,5.528 10.453,5.305 L9.542,4.394 C9.319,4.171 8.962,4.171 8.739,4.394 L6.284,6.849 L4.972,5.537 C4.749,5.314 4.392,5.314 4.169,5.537 L3.258,6.447 C3.035,6.670 3.035,7.028 3.258,7.251 L5.882,9.875 C6.106,10.098 6.463,10.098 6.686,9.875 L10.453,6.108 ZM11.711,6.849 C11.711,9.527 9.533,11.705 6.855,11.705 C4.178,11.705 1.999,9.527 1.999,6.849 C1.999,4.171 4.178,1.993 6.855,1.993 C9.533,1.993 11.711,4.171 11.711,6.849 ZM13.711,6.849 C13.711,3.064 10.640,-0.006 6.855,-0.006 C3.071,-0.006 -0.000,3.064 -0.000,6.849 C-0.000,10.634 3.071,13.704 6.855,13.704 C10.640,13.704 13.711,10.634 13.711,6.849 Z" class="cls-1"/>
</svg>
