<svg xmlns="http://www.w3.org/2000/svg" viewBox="0 0 211.35 40"><title>Word of Mouth</title>
    <polygon points="59.04 19.36 57.77 23.25 55.67 28.65 52.41 28.65 46.07 11.35 50.53 11.35 54.05 22.14 57.67 11.35 60.35 11.35 64.08 22.14 67.49 11.35 71.95 11.35 65.74 28.65 62.48 28.65 60.32 23.19 59.04 19.36" style="fill:#222;fill-rule:evenodd"></polygon><path d="M168.47,17a6.84,6.84,0,0,1,2.67.51,6.09,6.09,0,0,1,2.05,1.4,6.22,6.22,0,0,1,1.31,2.06,6.88,6.88,0,0,1,.46,2.49,7,7,0,0,1-.44,2.5A6.12,6.12,0,0,1,173.23,28a5.94,5.94,0,0,1-2,1.4,7.4,7.4,0,0,1-5.38,0,5.92,5.92,0,0,1-2-1.4,6.11,6.11,0,0,1-1.28-2.06,7.1,7.1,0,0,1-.44-2.5,7,7,0,0,1,.45-2.49,6.19,6.19,0,0,1,1.28-2.06,6,6,0,0,1,2-1.4,6.77,6.77,0,0,1,2.66-.51h0Zm0,3.53a2.63,2.63,0,0,0-1.15.24,2.4,2.4,0,0,0-.82.64,2.9,2.9,0,0,0-.51.94,3.54,3.54,0,0,0-.17,1.11,3.65,3.65,0,0,0,.17,1.12,2.82,2.82,0,0,0,.51.93,2.33,2.33,0,0,0,.81.63,3,3,0,0,0,2.33,0,2.37,2.37,0,0,0,.82-0.63,2.78,2.78,0,0,0,.51-0.93,3.64,3.64,0,0,0,.17-1.12,3.23,3.23,0,0,0-.19-1.1,3.05,3.05,0,0,0-.54-0.95,2.57,2.57,0,0,0-.84-0.65A2.45,2.45,0,0,0,168.49,20.5Z" transform="translate(-0.95 -1)" style="fill:#222;fill-rule:evenodd"></path><path d="M204,18.08a4.38,4.38,0,0,1,.38-0.28,4.46,4.46,0,0,1,1.36-.6,5.58,5.58,0,0,1,1.4-.17,5.35,5.35,0,0,1,2.93.78A4.52,4.52,0,0,1,211.77,20a8.48,8.48,0,0,1,.53,3.13v6.54h-3.78V23.14a3.38,3.38,0,0,0-.29-1.5,1.72,1.72,0,0,0-.72-0.77,2.36,2.36,0,0,0-1.13-.25,2.3,2.3,0,0,0-1,.2,2.26,2.26,0,0,0-.74.56,2.69,2.69,0,0,0-.5.86A3.08,3.08,0,0,0,204,23.3v6.35h-3.78V12.35H204v5.73Z" transform="translate(-0.95 -1)" style="fill:#222;fill-rule:evenodd"></path><path d="M195.38,17.23h3.17v3.38h-3.2v4.5a1.55,1.55,0,0,0,.14.7,0.8,0.8,0,0,0,.33.35,1.17,1.17,0,0,0,.56.12A2.3,2.3,0,0,0,197,26.2a3.11,3.11,0,0,0,.59-0.22l0.48-.24,1.1,3.36-0.41.16a8.12,8.12,0,0,1-.83.28,6.16,6.16,0,0,1-.82.17,8.24,8.24,0,0,1-.86.07,5,5,0,0,1-2.4-.46,3.68,3.68,0,0,1-1.64-1.61,5.52,5.52,0,0,1-.57-2.6v-4.5h-2.15V17.23h2.15V14.31l3.78-.4v3.32Z" transform="translate(-0.95 -1)" style="fill:#222;fill-rule:evenodd"></path><path d="M184.82,28.58a7,7,0,0,1-.57.41,5.16,5.16,0,0,1-1.38.63,5.78,5.78,0,0,1-1.59.2,5.19,5.19,0,0,1-2.09-.42,4.71,4.71,0,0,1-1.67-1.22,5.6,5.6,0,0,1-1.08-1.93,8,8,0,0,1-.38-2.54V17.21h3.78V23.7a3.32,3.32,0,0,0,.27,1.38,2.05,2.05,0,0,0,.76.9,2.31,2.31,0,0,0,1.27.33,2.31,2.31,0,0,0,1.78-.8,2.7,2.7,0,0,0,.51-0.88,3.2,3.2,0,0,0,.19-1.09V17.21h3.76V29.65h-3.42Z" transform="translate(-0.95 -1)" style="fill:#222;fill-rule:evenodd"></path><path d="M119.8,17a6.84,6.84,0,0,1,2.67.51,6.1,6.1,0,0,1,2.05,1.4,6.22,6.22,0,0,1,1.31,2.06,6.87,6.87,0,0,1,.46,2.49,7,7,0,0,1-.44,2.5A6.11,6.11,0,0,1,124.57,28a6,6,0,0,1-2,1.4,7.4,7.4,0,0,1-5.38,0,5.92,5.92,0,0,1-2-1.4,6.12,6.12,0,0,1-1.28-2.06,7.1,7.1,0,0,1-.44-2.5,7,7,0,0,1,.45-2.49,6.18,6.18,0,0,1,1.28-2.06,6,6,0,0,1,2-1.4A6.77,6.77,0,0,1,119.8,17h0Zm0,3.53a2.63,2.63,0,0,0-1.15.24,2.4,2.4,0,0,0-.82.64,2.9,2.9,0,0,0-.51.94,3.53,3.53,0,0,0-.17,1.11,3.64,3.64,0,0,0,.17,1.12,2.83,2.83,0,0,0,.51.93,2.33,2.33,0,0,0,.81.63,3,3,0,0,0,2.33,0,2.37,2.37,0,0,0,.82-0.63,2.79,2.79,0,0,0,.51-0.93,3.64,3.64,0,0,0,.17-1.12,3.23,3.23,0,0,0-.19-1.1,3,3,0,0,0-.54-0.95,2.57,2.57,0,0,0-.84-0.65A2.45,2.45,0,0,0,119.83,20.5Z" transform="translate(-0.95 -1)" style="fill:#222;fill-rule:evenodd"></path><polygon points="155.87 17.74 151.25 23.89 150.17 23.89 145.67 17.75 145.67 28.65 141.66 28.65 141.66 11.4 145.91 11.4 150.78 18.09 155.65 11.4 159.88 11.4 159.88 28.65 155.87 28.65 155.87 17.74" style="fill:#222;fill-rule:evenodd"></polygon><path d="M129.19,20.8H127V17.37h2.15v-0.3a5.67,5.67,0,0,1,.4-2.18,4.32,4.32,0,0,1,1.08-1.57,4.49,4.49,0,0,1,1.56-.92,5.6,5.6,0,0,1,3.47,0,6.47,6.47,0,0,1,1.58.75l0.35,0.23-1.47,3L135.72,16a3.8,3.8,0,0,0-.79-0.4,2.09,2.09,0,0,0-.71-0.13,1.29,1.29,0,0,0-.65.16,1.09,1.09,0,0,0-.43.48,2.17,2.17,0,0,0-.18.95v0.3h3.38V20.8H133v8.85h-3.78V20.8Z" transform="translate(-0.95 -1)" style="fill:#222;fill-rule:evenodd"></path><path d="M104,28.72a3.82,3.82,0,0,1-.45.35,4.53,4.53,0,0,1-1.42.65,5.92,5.92,0,0,1-1.51.19,7.25,7.25,0,0,1-2.51-.44,5.78,5.78,0,0,1-3.39-3.34,7.32,7.32,0,0,1-.48-2.71,7.68,7.68,0,0,1,.48-2.78,5.49,5.49,0,0,1,3.36-3.3,7.37,7.37,0,0,1,2.49-.41,5.1,5.1,0,0,1,1.11.13,6.6,6.6,0,0,1,1.17.38,5,5,0,0,1,1,.6V12.4h3.78V29.65h-3.54L104,28.72h0Zm-3.19-8.19a3,3,0,0,0-1.11.2,2.56,2.56,0,0,0-1.47,1.47A3.26,3.26,0,0,0,98,23.42a3.19,3.19,0,0,0,.22,1.2,2.74,2.74,0,0,0,.59.91,2.64,2.64,0,0,0,.88.59,2.89,2.89,0,0,0,1.1.21,3.05,3.05,0,0,0,1.11-.21,2.76,2.76,0,0,0,.91-0.58,2.66,2.66,0,0,0,.62-0.91,3.13,3.13,0,0,0,.23-1.22,3,3,0,0,0-.23-1.19,2.73,2.73,0,0,0-.62-0.91,2.78,2.78,0,0,0-.91-0.59A3,3,0,0,0,100.83,20.52Z" transform="translate(-0.95 -1)" style="fill:#222;fill-rule:evenodd"></path><path d="M77.14,17a6.84,6.84,0,0,1,2.67.51,6.1,6.1,0,0,1,2.05,1.4,6.22,6.22,0,0,1,1.31,2.06,6.87,6.87,0,0,1,.46,2.49,7,7,0,0,1-.44,2.5A6.11,6.11,0,0,1,81.9,28a5.94,5.94,0,0,1-2,1.4,7.4,7.4,0,0,1-5.38,0,5.92,5.92,0,0,1-2-1.4,6.11,6.11,0,0,1-1.28-2.06,7.1,7.1,0,0,1-.44-2.5,7,7,0,0,1,.45-2.49,6.18,6.18,0,0,1,1.28-2.06,6,6,0,0,1,2-1.4A6.77,6.77,0,0,1,77.14,17h0Zm0,3.53a2.63,2.63,0,0,0-1.15.24,2.4,2.4,0,0,0-.82.64,2.9,2.9,0,0,0-.51.94,3.53,3.53,0,0,0-.17,1.11,3.64,3.64,0,0,0,.17,1.12,2.82,2.82,0,0,0,.51.93,2.33,2.33,0,0,0,.81.63,3,3,0,0,0,2.33,0,2.37,2.37,0,0,0,.82-0.63,2.79,2.79,0,0,0,.51-0.93,3.65,3.65,0,0,0,.17-1.12,3.23,3.23,0,0,0-.19-1.1,3,3,0,0,0-.54-0.95,2.57,2.57,0,0,0-.84-0.65A2.45,2.45,0,0,0,77.16,20.5Z" transform="translate(-0.95 -1)" style="fill:#222;fill-rule:evenodd"></path><path d="M88.27,17.89a3.15,3.15,0,0,1,.42-0.34A3.53,3.53,0,0,1,90,17a6.19,6.19,0,0,1,1.26-.12,5.43,5.43,0,0,1,1.27.16,5,5,0,0,1,1.12.43,3.71,3.71,0,0,1,.9.65l0.24,0.24L93,21.68l-0.45-.38a3.18,3.18,0,0,0-.51-0.36,2.09,2.09,0,0,0-.53-0.2,3.1,3.1,0,0,0-.71-0.07,3.14,3.14,0,0,0-.94.13,2.12,2.12,0,0,0-.75.41,1.92,1.92,0,0,0-.51.73,3.08,3.08,0,0,0-.2,1.17v6.54H84.66V17.21h3.5Z" transform="translate(-0.95 -1)" style="fill:#222;fill-rule:evenodd"></path><path d="M21,1A20,20,0,0,0,4.5,32.38L2.11,41H21A20,20,0,1,0,21,1ZM33.27,18.07a1.42,1.42,0,0,1-.37.55q-2.64,2.6-5.29,5.18a0.33,0.33,0,0,0-.14.33q0.65,3.7,1.29,7.4a0.91,0.91,0,0,1-.54,1,1,1,0,0,1-.89-0.09L20.81,29a0.35,0.35,0,0,0-.39,0c-0.32.18-.65,0.34-1,0.51-1.86,1-3.71,2-5.58,2.91a1.31,1.31,0,0,1-.68.17,0.88,0.88,0,0,1-.77-1.14c0.08-.52.18-1,0.27-1.54,0.33-1.93.66-3.85,1-5.78a0.39,0.39,0,0,0-.14-0.4l-5.15-5A1.7,1.7,0,0,1,7.87,18V17.78A1,1,0,0,1,8.69,17l2-.3,5.45-.8a0.32,0.32,0,0,0,.28-0.21c1.07-2.17,2.14-4.34,3.2-6.52a1.27,1.27,0,0,1,.86-0.8h0.21a1.23,1.23,0,0,1,.86.82c0.15,0.34.33,0.67,0.49,1q1.35,2.75,2.71,5.49a0.36,0.36,0,0,0,.21.19l4,0.56,3.56,0.51A0.88,0.88,0,0,1,33.27,18.07Z" transform="translate(-0.95 -1)" style="fill:#f60;fill-rule:evenodd"></path></svg>